<svg xmlns="http://www.w3.org/2000/svg" viewBox="0 0 427 72.97"><defs><style>.cls-1{fill:#fff;}.cls-2{fill:#0fe867;}.cls-3{fill:#012a30;}</style></defs><title>Recurso 1</title><g id="Capa_2" data-name="Capa 2"><g id="Capa_1-2" data-name="Capa 1"><path class="cls-1" d="M15.36,7.6v9.88H26.57v6.58H15.36V43.89a7.19,7.19,0,0,0,.71,3.65c.47.75,1.59,1.13,3.37,1.13a16.09,16.09,0,0,0,5.72-1.17l2.35,6.11a27,27,0,0,1-12.34,3.06q-6.31,0-8.55-2.71T4.39,46.09v-22H.86L0,19.28q1.26-1.49,5.17-3,.95-6.42,4.47-8.7Z"/><path class="cls-1" d="M46.83,57.29q-9.28,0-13.76-4.93T28.61,37.43q0-10,5-15.29t14.31-5.29q9.33,0,13.83,4.7t4.51,14.7q0,10-5.06,15.52T46.83,57.29ZM39.89,36.76q0,12.54,7.53,12.54a6.28,6.28,0,0,0,5.68-2.86q1.84-2.86,1.84-9.37,0-12.22-7.68-12.22a6.21,6.21,0,0,0-5.56,2.7Q39.89,30.25,39.89,36.76Z"/><path class="cls-1" d="M89,1a38.35,38.35,0,0,1,8.54-1c2.72,0,5,.08,7,.24v47a16.31,16.31,0,0,1,4.31,1.33v6.2A25.22,25.22,0,0,1,97,57.29a4.49,4.49,0,0,1-1.53-1.41,3.91,3.91,0,0,1-.82-2,14.9,14.9,0,0,1-4.47,2.39,15.83,15.83,0,0,1-5.4,1q-8.48,0-12.27-4.58t-3.8-15q0-11.84,5.8-16.62A19,19,0,0,1,87,16.85a27.92,27.92,0,0,1,6.58.79V9.88a11.59,11.59,0,0,1-5.33-2.83ZM86.37,49.3a9.93,9.93,0,0,0,7.21-2.66v-21a28.79,28.79,0,0,0-6.82-.78A5.42,5.42,0,0,0,81.55,28Q79.95,31.2,80,37.5t1.56,9.06A5.22,5.22,0,0,0,86.37,49.3Z"/><path class="cls-1" d="M128.73,57.29q-9.28,0-13.75-4.93t-4.47-14.93q0-10,5-15.29t14.3-5.29q9.33,0,13.84,4.7t4.5,14.7q0,10-5,15.52T128.73,57.29ZM121.8,36.76q0,12.54,7.52,12.54A6.29,6.29,0,0,0,135,46.44c1.22-1.91,1.84-5,1.84-9.37q0-12.22-7.68-12.22a6.23,6.23,0,0,0-5.57,2.7Q121.8,30.25,121.8,36.76Z"/><path class="cls-1" d="M168.59,65q7,0,7-8.39V53.14a18.19,18.19,0,0,1-9.64,2.35q-7.38,0-11.33-4.31t-4-14.34q0-20,18.34-20a19.34,19.34,0,0,1,8.78,2,2.53,2.53,0,0,1,2.35-1.41h6.43V56q0,8.62-4.27,12.78T169.06,73a45.56,45.56,0,0,1-9.72-1.1,24,24,0,0,1-7.6-2.74,13.33,13.33,0,0,1-.08-1.41,18.06,18.06,0,0,1,2-8.31h6.9a13.9,13.9,0,0,1,1.25,4.39A18.28,18.28,0,0,0,168.59,65ZM163.06,44.6q1.6,2.35,5.49,2.35a11.91,11.91,0,0,0,7-2.2V26.18a17.25,17.25,0,0,0-6.82-1.33q-7.29,0-7.29,11.52Q161.46,42.25,163.06,44.6Z"/><path class="cls-1" d="M214.44,27.12q-6,0-8.23,2.27v18q6.34,1.17,8.7,3.29l-.78,6H191.71l-.78-6A9.19,9.19,0,0,1,195.24,48V26.18a10.11,10.11,0,0,1-4.31-2.67l.78-6a36.54,36.54,0,0,1,7.76-.94c2.3,0,4.2.05,5.72.15v4.94a14,14,0,0,1,4.63-3.49A12,12,0,0,1,215,16.77a8.41,8.41,0,0,1,3.17.4l-.23,10.18A24.44,24.44,0,0,0,214.44,27.12Z"/><path class="cls-1" d="M221.34,23.28c0-.79,0-1.62.08-2.51a32.58,32.58,0,0,1,15.67-3.92q8.39,0,12,3.18t3.65,10.54V47.26a18.14,18.14,0,0,1,4.31,1.33v6.82q-4,1.89-11.45,1.88a29.26,29.26,0,0,1-1.33-4.93q-3.37,4.94-12.23,4.93a13.66,13.66,0,0,1-9-3,10.19,10.19,0,0,1-3.72-8.31,10.35,10.35,0,0,1,3.49-8.27q3.48-3,10.38-3h8.54V30.88q0-6.1-6.5-6.11a14,14,0,0,0-4,.47,14.93,14.93,0,0,1-.94,5.09h-7.68A16.15,16.15,0,0,1,221.34,23.28Zm14.11,26A8.54,8.54,0,0,0,241.79,47V40.52h-5.48q-5.66,0-5.65,4.31a4.45,4.45,0,0,0,1.22,3.22A4.77,4.77,0,0,0,235.45,49.3Z"/><path class="cls-1" d="M272.59,7.6v9.88H283.8v6.58H272.59V43.89a7.19,7.19,0,0,0,.71,3.65c.47.75,1.59,1.13,3.37,1.13a16,16,0,0,0,5.72-1.17l2.35,6.11a27,27,0,0,1-12.34,3.06q-6.31,0-8.54-2.71t-2.24-7.87v-22h-3.53l-.86-4.78c.84-1,2.56-2,5.18-3q.93-6.42,4.46-8.7Z"/><path class="cls-1" d="M286.86,17.48a36.16,36.16,0,0,1,8.15-1c2.51,0,4.62.08,6.35.23V48a10.53,10.53,0,0,1,4.31,2.66l-.78,6h-18l-.78-6A9.19,9.19,0,0,1,290.39,48V26.18a10.11,10.11,0,0,1-4.31-2.67Zm8.89-5.41q-6.54,0-6.54-5.92T295.75.24q6.56,0,6.55,5.91T295.75,12.07Z"/><path class="cls-1" d="M322.91,23.91c-3.45,0-5.17,1-5.17,3.05s1.8,3.37,5.41,4.31l6.19,1.65q9.56,2.51,9.56,11a12.36,12.36,0,0,1-4.11,9.6q-4.12,3.72-13.09,3.72t-14-2.5a16.69,16.69,0,0,1-.08-1.73,17.12,17.12,0,0,1,1.72-7.76h6.51a12.06,12.06,0,0,1,1.33,3.92,16.12,16.12,0,0,0,4.47.47c4.6,0,6.9-1.3,6.9-3.92a2.65,2.65,0,0,0-.94-2.07,10.31,10.31,0,0,0-3.69-1.61l-6.19-1.8a16.87,16.87,0,0,1-7.45-4q-2.66-2.62-2.66-7.76a10.3,10.3,0,0,1,4.15-8.43q4.16-3.29,11.88-3.29a33.41,33.41,0,0,1,13,2.27c.05.53.08,1.05.08,1.57a16.6,16.6,0,0,1-1.73,7.53h-6.43a11.27,11.27,0,0,1-1.33-3.77A18.26,18.26,0,0,0,322.91,23.91Z"/><path class="cls-1" d="M348.42,57.45q-6.54,0-6.54-5.92t6.54-5.91q6.56,0,6.55,5.91T348.42,57.45Z"/><rect class="cls-2" x="359.67" y="35.11" width="67.33" height="21.56" rx="10.78" ry="10.78"/><path class="cls-3" d="M378.8,42.8c-1.34,0-2,1.16-2,3.47a4,4,0,0,0,.56,2.44,2,2,0,0,0,1.61.69,12.34,12.34,0,0,0,2.94-.31l.66,1.69a6.48,6.48,0,0,1-1.89.78,8.91,8.91,0,0,1-2.3.32q-4.73,0-4.73-5.48c0-2.14.55-3.67,1.64-4.61a5.42,5.42,0,0,1,3.57-1.22,7,7,0,0,1,3.51.79,2.88,2.88,0,0,1,0,.41,5.18,5.18,0,0,1-.57,2.37h-1.93a3.41,3.41,0,0,1-.37-1.32Z"/><path class="cls-3" d="M388.5,51.88a4.91,4.91,0,0,1-3.85-1.39,6.06,6.06,0,0,1-1.25-4.17,6,6,0,0,1,1.39-4.27,5.22,5.22,0,0,1,4-1.48,5.12,5.12,0,0,1,3.87,1.31A5.78,5.78,0,0,1,393.92,46a6.21,6.21,0,0,1-1.41,4.34A5.16,5.16,0,0,1,388.5,51.88Zm-1.94-5.75q0,3.51,2.1,3.51a1.76,1.76,0,0,0,1.59-.8,5.05,5.05,0,0,0,.52-2.62c0-2.28-.72-3.42-2.15-3.42a1.74,1.74,0,0,0-1.56.76A4.9,4.9,0,0,0,386.56,46.13Z"/><path class="cls-3" d="M395.26,40.74a10.62,10.62,0,0,1,2.17-.26c.64,0,1.18,0,1.6,0v1.1a5,5,0,0,1,1.31-.75,4.07,4.07,0,0,1,1.43-.3c1.66,0,2.77.41,3.33,1.25a4.42,4.42,0,0,1,1.45-.89,4.49,4.49,0,0,1,1.66-.36c1.61,0,2.69.36,3.25,1.08s.83,2.08.83,4.07v3.55a3,3,0,0,1,1.2.74l-.21,1.69h-5L408,50a2.7,2.7,0,0,1,1.21-.74V44.93a2.65,2.65,0,0,0-.33-1.6,1.63,1.63,0,0,0-1.3-.4,2.82,2.82,0,0,0-1.85.73,15.35,15.35,0,0,1,.11,2.06v3.55a3,3,0,0,1,1.2.74l-.22,1.69h-5L401.57,50a2.7,2.7,0,0,1,1.21-.74V44.93a2.65,2.65,0,0,0-.33-1.6,1.62,1.62,0,0,0-1.29-.4,3,3,0,0,0-1.85.7v5.64a3,3,0,0,1,1.21.74l-.22,1.69h-5L395,50a2.7,2.7,0,0,1,1.21-.74v-6.1a2.74,2.74,0,0,1-1.21-.74Z"/></g></g></svg>